<svg aria-hidden="true" style="position: absolute; width: 0; height: 0; overflow: hidden;"
    version="1.1" xmlns="http://www.w3.org/2000/svg" xmlns:xlink="http://www.w3.org/1999/xlink">
    <defs>
        <symbol id="likes" fill="currentColor" viewBox="0 0 24 24">
            <path
                d="M7.493 18.5c-.425 0-.82-.236-.975-.632A7.48 7.48 0 0 1 6 15.125c0-1.75.599-3.358 1.602-4.634.151-.192.373-.309.6-.397.473-.183.89-.514 1.212-.924a9.042 9.042 0 0 1 2.861-2.4c.723-.384 1.35-.956 1.653-1.715a4.498 4.498 0 0 0 .322-1.672V2.75A.75.75 0 0 1 15 2a2.25 2.25 0 0 1 2.25 2.25c0 1.152-.26 2.243-.723 3.218-.266.558.107 1.282.725 1.282h3.126c1.026 0 1.945.694 2.054 1.715.045.422.068.85.068 1.285a11.95 11.95 0 0 1-2.649 7.521c-.388.482-.987.729-1.605.729H14.23c-.483 0-.964-.078-1.423-.23l-3.114-1.04a4.501 4.501 0 0 0-1.423-.23h-.777ZM2.331 10.727a11.969 11.969 0 0 0-.831 4.398 12 12 0 0 0 .52 3.507C2.28 19.482 3.105 20 3.994 20H4.9c.445 0 .72-.498.523-.898a8.963 8.963 0 0 1-.924-3.977c0-1.708.476-3.305 1.302-4.666.245-.403-.028-.959-.5-.959H4.25c-.832 0-1.612.453-1.918 1.227Z" />
        </symbol>
        <symbol id="views" fill="currentColor" viewBox="0 0 24 24">
            <path d="M12 15a3 3 0 1 0 0-6 3 3 0 0 0 0 6Z" />
            <path fill-rule="evenodd"
                d="M1.323 11.447C2.811 6.976 7.028 3.75 12.001 3.75c4.97 0 9.185 3.223 10.675 7.69.12.362.12.752 0 1.113-1.487 4.471-5.705 7.697-10.677 7.697-4.97 0-9.186-3.223-10.675-7.69a1.762 1.762 0 0 1 0-1.113ZM17.25 12a5.25 5.25 0 1 1-10.5 0 5.25 5.25 0 0 1 10.5 0Z"
                clip-rule="evenodd" />
        </symbol>
        <symbol id="comments" fill="currentColor" viewBox="0 0 24 24">
            <path fill-rule="evenodd"
                d="M4.848 2.771A49.144 49.144 0 0 1 12 2.25c2.43 0 4.817.178 7.152.52 1.978.292 3.348 2.024 3.348 3.97v6.02c0 1.946-1.37 3.678-3.348 3.97a48.901 48.901 0 0 1-3.476.383.39.39 0 0 0-.297.17l-2.755 4.133a.75.75 0 0 1-1.248 0l-2.755-4.133a.39.39 0 0 0-.297-.17 48.9 48.9 0 0 1-3.476-.384c-1.978-.29-3.348-2.024-3.348-3.97V6.741c0-1.946 1.37-3.68 3.348-3.97ZM6.75 8.25a.75.75 0 0 1 .75-.75h9a.75.75 0 0 1 0 1.5h-9a.75.75 0 0 1-.75-.75Zm.75 2.25a.75.75 0 0 0 0 1.5H12a.75.75 0 0 0 0-1.5H7.5Z"
                clip-rule="evenodd" />
        </symbol>
        <symbol id="download" fill="currentColor" viewBox="0 0 24 24">
            <path
                d="M3.375 3C2.339 3 1.5 3.84 1.5 4.875v.75c0 1.036.84 1.875 1.875 1.875h17.25c1.035 0 1.875-.84 1.875-1.875v-.75C22.5 3.839 21.66 3 20.625 3H3.375Z" />
            <path fill-rule="evenodd"
                d="m3.087 9 .54 9.176A3 3 0 0 0 6.62 21h10.757a3 3 0 0 0 2.995-2.824L20.913 9H3.087ZM12 10.5a.75.75 0 0 1 .75.75v4.94l1.72-1.72a.75.75 0 1 1 1.06 1.06l-3 3a.75.75 0 0 1-1.06 0l-3-3a.75.75 0 1 1 1.06-1.06l1.72 1.72v-4.94a.75.75 0 0 1 .75-.75Z"
                clip-rule="evenodd" />
        </symbol>
    </defs>
</svg>